<?xml version="1.0" encoding="UTF-8"?>
<svg id="Layer_2" data-name="Layer 2" xmlns="http://www.w3.org/2000/svg" viewBox="0 0 140 129.6">
  <defs>
    <style>
      .cls-1 {
        fill: #fff;
      }

      .cls-2 {
        fill: #c3e700;
      }
    </style>
  </defs>
  <g id="Layer_2-2" data-name="Layer 2">
    <g>
      <rect y="15.84" width="140" height="113.75" rx="15.1" ry="15.1"/>
      <path class="cls-1" d="m13.18,27.57h7.83l.08,2.33c1.15-.99,2.18-1.66,3.09-1.98.91-.32,2.22-.47,3.96-.47,2.69,0,4.67,1.03,5.97,3.09,1.31,2.06,1.94,4.79,1.94,8.19,0,1.15.04,7.04.16,17.73.12,10.68.16,17.37.16,20.1,0,3.56-.87,6.21-2.61,7.95s-4.11,2.61-7.12,2.61c-2.69,0-4.87-.91-6.49-2.69h-.24l-.08,32.33h-7.24l.36-82.38.24-6.81Zm11.55,9.58c-1.35,0-2.53.4-3.52,1.23,0,20.97-.04,33-.08,36.12.51,1.31,1.58,1.98,3.17,2.02,1.66,0,2.77-.44,3.32-1.31s.83-2.49.83-4.87l-.08-27.97c0-2.02-.24-3.4-.71-4.11s-1.46-1.07-2.97-1.07l.04-.04Z"/>
      <path class="cls-1" d="m41.23,37.02l9.65-.32.63,49.42-10.45-.4.16-48.71Z"/>
      <path class="cls-1" d="m63.41,28.74l6.45,15.79.36.08,4.43-16.34,9.5-.24-9.89,22.83,11.2,33.87-11.28.24-4.19-15.47-.51-.08-5.58,16.3-9.18.16,10.49-32.41-10.64-24.97,8.86.24Z"/>
      <path class="cls-1" d="m94.47,60.57c0,.47,0,1.15-.04,2.06-.04.91-.04,1.62-.04,2.18v2.14c0,.87,0,1.58.04,2.18.04.59.08,1.23.16,1.9s.2,1.23.36,1.7.36.91.55,1.31c.2.4.47.67.79.87s.67.28,1.03.28c.59,0,1.11-.2,1.54-.55.44-.36.79-.75,1.03-1.19.24-.43.44-1.03.55-1.78.12-.75.2-1.39.24-1.86.04-.47.04-1.07.04-1.78v-1.27l7.36-.32v11.63c0,3.56-.95,5.94-2.85,7.16-1.9,1.23-4.51,1.82-7.87,1.82-4.08,0-6.92-1.23-8.55-3.68-1.62-2.45-2.41-6.01-2.41-10.64,0-3.28,0-6.77.04-10.45.04-3.68.08-6.96.12-9.89.04-2.93.08-5.58.12-7.99.04-2.41.08-4.35.12-5.82.04-1.46.04-2.26.04-2.37,0-3.68.79-6.17,2.37-7.44s4.47-1.9,8.7-1.9c3.13,0,5.54.59,7.2,1.82s2.45,3.09,2.41,5.58c-.12,3.84-.08,8.74.08,14.76v11.28l-12.98.24-.16.04Zm3.52-22.99c-1.15,0-1.98.28-2.53.83s-.83,1.54-.83,2.97c0,.32-.04,1.82-.12,4.51s-.12,4.39-.12,5.14h6.41l-.4-10.76c-.04-.87-.2-1.54-.51-2.02s-.95-.71-1.94-.71l.04.04Z"/>
      <path class="cls-1" d="m121.28,27.97v49.26h7.05l.16,8.74-16.03-.16V28.32l8.82-.36Z"/>
      <g>
        <path class="cls-2" d="m24.81,105.1s-.04-.28-.04-.87.02-1.17.04-1.75v-.88l3.64-.06c0-.49.02-1.43.08-2.84s.08-2.61.08-3.65l3.96.08.08,6.68,3.24-.08-.04,3.17-3.25.06-.1,7.1c0,.71.18,1.23.52,1.56.34.33.72.49,1.13.49.54,0,1.12-.13,1.73-.39l.1,3.42c-.38.41-1.37.61-2.99.61-1.49,0-2.63-.46-3.38-1.39-.76-.93-1.13-1.95-1.13-3.09,0-.66-.02-1.94-.04-3.83s-.04-3.37-.04-4.46l-3.64.06.04.05Z"/>
        <path class="cls-2" d="m48.25,94.1c.98,0,1.71.28,2.21.87s.76,1.31.78,2.19l.38,17.15c.02,1.29-.22,2.24-.72,2.85s-1.39.91-2.69.91c-.44,0-1.31.02-2.63.03s-2.09.03-2.35.03c-1.02,0-1.83-.43-2.45-1.26-.62-.83-.92-1.87-.92-3.1l-.04-14.74c0-1.62.26-2.85.76-3.7.5-.85,1.43-1.28,2.79-1.28l4.88.05Zm-.56,5.84c0-.65-.14-1.1-.42-1.37-.28-.27-.88-.39-1.77-.39-.52,0-.98.16-1.37.47s-.58.76-.56,1.32c.16,4.47.24,8.24.24,11.29,0,.9.16,1.51.48,1.83.32.32.94.47,1.85.47.7,0,1.17-.17,1.41-.5.24-.33.36-.84.36-1.51,0-.02-.04-1.24-.1-3.69s-.1-5.1-.1-7.99l-.02.06Z"/>
        <path class="cls-2" d="m63.59,94.1c.98,0,1.71.28,2.21.87s.76,1.31.78,2.19l.38,17.15c.02,1.29-.22,2.24-.72,2.85s-1.39.91-2.69.91c-.44,0-1.31.02-2.63.03s-2.09.03-2.35.03c-1.02,0-1.83-.43-2.45-1.26-.62-.83-.92-1.87-.92-3.1l-.04-14.74c0-1.62.26-2.85.76-3.7.5-.85,1.43-1.28,2.79-1.28l4.88.05Zm-.56,5.84c0-.65-.14-1.1-.42-1.37-.28-.27-.88-.39-1.77-.39-.52,0-.98.16-1.37.47s-.58.76-.56,1.32c.16,4.47.24,8.24.24,11.29,0,.9.16,1.51.48,1.83s.94.47,1.85.47c.7,0,1.17-.17,1.41-.5.24-.33.36-.84.36-1.51,0-.02-.04-1.24-.1-3.69-.06-2.44-.1-5.1-.1-7.99l-.02.06Z"/>
        <polygon class="cls-2" points="76.45 94.24 75.45 114.12 80.7 114.12 80.78 117.6 72.01 117.54 72.01 94.38 76.45 94.24"/>
        <path class="cls-2" d="m84.91,93.36l4.72.13-.66,6.19.08.03c.42-.24.72-.39.9-.47.18-.08.5-.17.96-.27.46-.09,1.02-.14,1.65-.14,1.25,0,2.23.47,2.93,1.42.7.94,1.06,1.97,1.06,3.07,0,.24.02,1.61.08,4.11.06,2.5.08,4.32.08,5.43,0,1.5-.36,2.68-1.07,3.53-.72.85-1.79,1.28-3.25,1.28-1.12,0-1.95-.05-2.53-.16s-.96-.36-1.13-.76l-.12.03-.16.8s-.4,0-1.13-.02-1.57-.05-2.53-.09l.26-20.93-.12-3.18Zm6.21,9.59c-.9,0-1.61.33-2.13.98v8.03c.1.2.32.38.66.54.34.16.64.24.9.24.78,0,1.33-.19,1.67-.58.34-.39.52-1.02.52-1.89l.04-5.51c0-1.21-.58-1.81-1.71-1.81l.06.02Z"/>
        <path class="cls-2" d="m112.85,117.45c-.94.05-1.77.08-2.51.09-.74.02-1.12.02-1.13.02l-.12-.8-.12-.03c-.34.88-1.43,1.32-3.3,1.32-1.45,0-2.55-.79-3.28-2.36-.74-1.57-1.12-3.65-1.12-6.24,0-4.68,1.43-7.03,4.32-7.04,1.49,0,2.53.24,3.11.72v-3.78c0-1.21-.66-1.81-1.95-1.81-.6,0-1.05.2-1.37.61-.32.41-.5.93-.56,1.54l-3.46-.28v-2.43c0-1.02.5-1.81,1.47-2.35.98-.54,2.33-.8,4.04-.8,2.15,0,3.64.28,4.48.84s1.27,1.32,1.29,2.32l.24,20.49-.02-.03Zm-5.89-11.03c-1.29,0-1.95,1.26-1.95,3.78,0,1.12.14,1.86.42,2.24s.78.57,1.47.57c.6,0,1.21-.25,1.87-.77-.02-1.21-.04-2.82-.04-4.82-.54-.68-1.13-1.01-1.79-1.01l.02.02Z"/>
        <path class="cls-2" d="m129.05,118.01c0,.9-.15,1.67-.45,2.29-.3.62-.64,1.09-1.03,1.41-.39.32-.9.56-1.57.75-.66.19-1.22.3-1.69.34s-1.03.06-1.67.06c-3.77,0-5.66-1.71-5.66-5.12,0-.66.21-1.26.62-1.78.41-.53.92-.92,1.54-1.2-.79-.17-1.46-.6-2.02-1.28-.56-.68-.84-1.45-.84-2.29,0-1.78.43-3,1.31-3.64-.64-.88-.97-2.8-.97-5.74,0-.96.02-1.71.04-2.23.02-.53.15-1.18.39-1.97.24-.79.58-1.39,1.01-1.8s1.07-.77,1.91-1.07,1.87-.45,3.09-.45,2.14.11,2.77.34c.24-.24.45-.53.64-.83s.34-.54.45-.71l.09-.24,2.94,1.93-1.67,2.06c.45.73.73,1.54.86,2.4.13.86.19,2.29.19,4.3,0,1.18-.21,2.2-.64,3.04s-.96,1.46-1.63,1.86c-.66.39-1.29.68-1.87.84-.58.17-1.14.24-1.67.24-.75,0-1.52-.09-2.29-.26-.36-.08-.64.11-.84.56-.19.45-.3.94-.3,1.48,0,1.46,1.37,2.2,4.1,2.2.49,0,.99.06,1.46.15.47.09.99.3,1.57.6.58.3,1.05.77,1.39,1.43.34.66.51,1.44.51,2.36l-.06-.02Zm-6.45,1.37c.9,0,1.57-.09,1.97-.28.41-.19.62-.54.62-1.09,0-.66-.15-1.11-.45-1.33-.3-.22-1.01-.34-2.12-.34-.54,0-1.01.11-1.42.32-.41.21-.6.53-.6.96,0,.64.17,1.09.49,1.35.32.26.84.39,1.54.39l-.04.02Zm.17-20.53c-1.22,0-1.84,1.07-1.84,3.23,0,1.26.15,2.16.45,2.7.3.54.77.81,1.42.81.47,0,.84-.06,1.09-.15.26-.09.49-.38.71-.84.21-.47.32-1.14.32-2.03,0-.54-.02-.98-.06-1.28-.04-.3-.11-.68-.21-1.11s-.32-.75-.64-.98c-.32-.22-.73-.34-1.22-.34v-.02Z"/>
      </g>
      <path class="cls-2" d="m58.61,6.73v12.53c0,3.72-2.83,6.73-6.33,6.73h-13.35c-3.49,0-6.33-3.02-6.33-6.73V6.73c0-3.72,2.83-6.73,6.33-6.73h13.35c3.49,0,6.33,3.02,6.33,6.73Z"/>
    </g>
  </g>
</svg>